<svg xmlns="http://www.w3.org/2000/svg" viewBox="0 0 231.27 48.66"><g id="Layer_2" data-name="Layer 2"><g id="Layer_1-2" data-name="Layer 1"><path d="M0,41.87l6.09-7.28c3.34,2.91,7.67,4.91,11.53,4.91,4.43,0,6.6-1.75,6.6-4.53,0-3-2.67-3.9-6.77-5.59l-6.1-2.6c-4.86-2-9.47-6-9.47-12.79,0-7.78,7-14,16.72-14A21.69,21.69,0,0,1,33.69,6.15l-5.35,6.69c-3.09-2.37-6-3.68-9.74-3.68s-6,1.53-6,4.21c0,2.88,3.07,3.92,7.17,5.55l6,2.43c5.73,2.31,9.31,6.13,9.31,12.76,0,7.8-6.5,14.55-17.69,14.55A25.83,25.83,0,0,1,0,41.87Z"/><path d="M43.06.86H53.67V19H69.88V.86H80.49V47.79H69.88V28.2H53.67V47.79H43.06Z"/><path d="M100.33.86H113l14.74,46.93H116.53L110.39,24c-1.3-4.7-2.56-10.24-3.81-15.14h-.29c-1.13,4.95-2.39,10.44-3.69,15.14L96.43,47.79H85.59Zm-5,27.51h22.59v8.25H95.3Z"/><path d="M132.27.86h10.88l12.24,23.35L160,34.52h.29c-.5-5-1.36-11.54-1.36-17.08V.86h10.11V47.79H158.2L146,24.39l-4.65-10.25H141c.5,5.18,1.35,11.47,1.35,17V47.79H132.27Z"/><path d="M180.15.86h29.41v8.9h-18.8v9.43h16v8.89h-16V38.9h19.52v8.89H180.15Z"/><path d="M218.49,42a6.4,6.4,0,1,1,12.78,0,6.4,6.4,0,1,1-12.78,0Z"/></g></g></svg>